P3
8 8
255
0 0 0
0 0 0
0 0 0
0 0 0
0 0 0
0 0 0
0 0 0
0 0 0
0 0 0
0 0 0
0 0 0
0 0 0
0 0 0
0 0 0
0 0 0
0 0 0
0 0 0
0 0 0
0 0 0
72 72 166
70 70 156
0 0 0
0 0 0
0 0 0
0 0 0
0 0 0
79 79 181
128 128 255
129 129 255
73 73 167
0 0 0
0 0 0
0 0 0
0 0 0
70 70 157
128 128 255
127 127 255
74 74 164
0 0 0
0 0 0
39 39 95
46 46 93
64 64 134
105 105 236
104 104 241
59 59 133
45 45 95
29 29 58
60 60 135
70 70 149
79 79 181
89 89 192
76 76 157
79 79 177
64 64 139
65 65 147
66 66 140
64 64 144
71 71 157
79 79 174
70 70 147
77 77 167
64 64 137
70 70 152
